<svg width="25" height="24" viewBox="0 0 25 24" fill="none" xmlns="http://www.w3.org/2000/svg">
<g clipPath="url(#clip0_329_1088)">
<path d="M15.5069 3.28087C15.4567 1.46334 13.9637 0 12.1343 0C10.3048 0 8.81182 1.46334 8.76167 3.28087C5.53118 4.56192 3.13428 7.81397 3.13428 11.625V21.75C3.13428 22.9908 4.1435 24 5.38428 24H18.8843C20.1251 24 21.1343 22.9908 21.1343 21.75V11.625C21.1343 7.82269 18.7455 4.56511 15.5069 3.28087ZM12.1343 1.5C12.9687 1.5 13.6773 2.04806 13.9197 2.80303C12.7413 2.56561 11.5273 2.56561 10.3488 2.80303C10.5912 2.04806 11.2998 1.5 12.1343 1.5ZM18.1343 19.125C18.1343 20.3658 17.1251 21.375 15.8843 21.375H8.38428C7.1435 21.375 6.13428 20.3658 6.13428 19.125V16.5C6.13428 15.2592 7.1435 14.25 8.38428 14.25H15.8843C17.1251 14.25 18.1343 15.2592 18.1343 16.5V19.125ZM17.7593 12.375C17.3449 12.375 17.0093 12.0394 17.0093 11.625C17.0093 8.93672 14.8226 6.75 12.1343 6.75C9.446 6.75 7.25928 8.93672 7.25928 11.625C7.25928 12.0394 6.92365 12.375 6.50928 12.375C6.0949 12.375 5.75928 12.0394 5.75928 11.625C5.75928 8.10984 8.61912 5.25 12.1343 5.25C15.6494 5.25 18.5093 8.10984 18.5093 11.625C18.5093 12.0394 18.1737 12.375 17.7593 12.375Z" fill="#FFFDF5"/>
<path d="M15.8843 15.75H8.38428C7.97084 15.75 7.63428 16.0866 7.63428 16.5V19.125C7.63428 19.5384 7.97084 19.875 8.38428 19.875H15.8843C16.2977 19.875 16.6343 19.5384 16.6343 19.125V16.5C16.6343 16.0866 16.2977 15.75 15.8843 15.75Z" fill="#FFFDF5"/>
<path d="M23.3843 12.75H22.8687C22.8065 12.75 22.7469 12.7747 22.7029 12.8186C22.659 12.8626 22.6343 12.9222 22.6343 12.9844V20.8601C22.6343 21.0674 22.8855 21.1745 23.0322 21.028C23.7127 20.3486 24.1343 19.4102 24.1343 18.375V13.5C24.1343 13.0858 23.7985 12.75 23.3843 12.75Z" fill="#FFFDF5"/>
<path d="M0.134277 13.5V18.375C0.134277 19.4102 0.555824 20.3486 1.23631 21.0281C1.38303 21.1746 1.63428 21.0674 1.63428 20.8601V12.9844C1.63428 12.9222 1.60958 12.8626 1.56563 12.8186C1.52168 12.7747 1.46206 12.75 1.3999 12.75H0.884277C0.470043 12.75 0.134277 13.0858 0.134277 13.5Z" fill="#FFFDF5"/>
</g>
<defs>
<clipPath id="clip0_329_1088">
<rect width="24" height="24" fill="white" transform="translate(0.134277)"/>
</clipPath>
</defs>
</svg>
