<svg width="25" height="24" viewBox="0 0 25 24" fill="none" xmlns="http://www.w3.org/2000/svg">
<g clipPath="url(#clip0_337_2325)">
<path d="M3.93115 4.45312C3.93115 4.56248 3.93518 4.6718 3.94329 4.78083C1.79182 5.09381 0.134277 6.95067 0.134277 9.1875C0.134277 10.2185 0.492918 11.2108 1.13609 12C0.492918 12.7892 0.134277 13.7815 0.134277 14.8125C0.134277 17.0493 1.79182 18.9062 3.94329 19.2192C3.93519 19.3282 3.93114 19.4375 3.93115 19.5469C3.93115 22.0023 5.92882 24 8.38428 24C9.56182 24 10.634 23.5405 11.4312 22.7915V1.20848C10.634 0.459469 9.56182 0 8.38428 0C5.92882 0 3.93115 1.99767 3.93115 4.45312Z" fill="currentColor"/>
<path d="M16.353 8.01562C16.7414 8.01562 17.0562 7.70083 17.0562 7.3125C17.0562 6.92417 16.7414 6.60938 16.353 6.60938C15.9647 6.60938 15.6499 6.92417 15.6499 7.3125C15.6499 7.70083 15.9647 8.01562 16.353 8.01562Z" fill="currentColor"/>
<path d="M24.1343 9.1875C24.1343 6.95067 22.4767 5.09381 20.3253 4.78083C20.3334 4.6718 20.3374 4.56248 20.3374 4.45312C20.3374 1.99767 18.3397 0 15.8843 0C14.7067 0 13.6346 0.459469 12.8374 1.20848V6.60938H14.3646C14.6548 5.79098 15.4364 5.20312 16.353 5.20312C17.5161 5.20312 18.4624 6.14939 18.4624 7.3125C18.4624 8.47561 17.5161 9.42188 16.353 9.42188C15.4364 9.42188 14.6548 8.83402 14.3646 8.01562H12.8374V11.2969H16.2396C16.5298 10.4785 17.3114 9.89062 18.228 9.89062C19.3911 9.89062 20.3374 10.8369 20.3374 12C20.3374 13.1631 19.3911 14.1094 18.228 14.1094C17.3114 14.1094 16.5298 13.5215 16.2396 12.7031H12.8374V15.9844H14.3646C14.6548 15.166 15.4364 14.5781 16.353 14.5781C17.5161 14.5781 18.4624 15.5244 18.4624 16.6875C18.4624 17.8506 17.5161 18.7969 16.353 18.7969C15.4364 18.7969 14.6548 18.209 14.3646 17.3906H12.8374V22.7915C13.6346 23.5405 14.7067 24 15.8843 24C18.3397 24 20.3374 22.0023 20.3374 19.5469C20.3374 19.4375 20.3334 19.3282 20.3253 19.2192C22.4767 18.9062 24.1343 17.0493 24.1343 14.8125C24.1343 13.7815 23.7756 12.7892 23.1325 12C23.7756 11.2108 24.1343 10.2185 24.1343 9.1875Z" fill="currentColor"/>
<path d="M16.353 17.3906C16.7414 17.3906 17.0562 17.0758 17.0562 16.6875C17.0562 16.2992 16.7414 15.9844 16.353 15.9844C15.9647 15.9844 15.6499 16.2992 15.6499 16.6875C15.6499 17.0758 15.9647 17.3906 16.353 17.3906Z" fill="currentColor"/>
<path d="M18.228 12.7031C18.6164 12.7031 18.9312 12.3883 18.9312 12C18.9312 11.6117 18.6164 11.2969 18.228 11.2969C17.8397 11.2969 17.5249 11.6117 17.5249 12C17.5249 12.3883 17.8397 12.7031 18.228 12.7031Z" fill="currentColor"/>
</g>
<defs>
<clipPath id="clip0_337_2325">
<rect width="24" height="24" fill="currentColor" transform="translate(0.134277)"/>
</clipPath>
</defs>
</svg>
