<svg width="25" height="24" viewBox="0 0 25 24" fill="none" xmlns="http://www.w3.org/2000/svg">
<path d="M14.1343 14L13.1343 13.5L12.1343 14.5L11.1343 14C9.97434 15.16 10.1343 14.935 10.1343 15.19C10.1343 18.525 7.75434 19.08 8.18934 20.97C8.27834 21.339 8.47048 21.675 8.74333 21.9388C9.01618 22.2026 9.35846 22.3834 9.73019 22.4599C10.1019 22.5365 10.4878 22.5057 10.8427 22.3711C11.1975 22.2365 11.5068 22.0038 11.7343 21.7C11.8899 22.2345 12.2193 22.7017 12.6705 23.0278C13.1217 23.3538 13.6687 23.5199 14.225 23.4998C14.7813 23.4798 15.3149 23.2746 15.7414 22.9169C16.1679 22.5591 16.4628 22.0693 16.5793 21.525C17.1343 18.85 14.1343 19.575 14.1343 14Z" fill="#FFFDF5"/>
<path d="M5.98937 10.145C5.94275 10.0984 5.88741 10.0614 5.82649 10.0361C5.76558 10.0109 5.7003 9.99792 5.63437 9.99792C5.56844 9.99792 5.50316 10.0109 5.44225 10.0361C5.38133 10.0614 5.32599 10.0984 5.27937 10.145C5.23275 10.1916 5.19577 10.2469 5.17054 10.3078C5.14531 10.3688 5.13232 10.434 5.13232 10.5C5.13232 10.5659 5.14531 10.6312 5.17054 10.6921C5.19577 10.753 5.23275 10.8084 5.27937 10.855C6.83937 12.41 6.84437 12.5 7.13437 12.5C7.23368 12.5005 7.33092 12.4715 7.41368 12.4166C7.49644 12.3617 7.56097 12.2834 7.59906 12.1917C7.63714 12.1 7.64704 11.999 7.62751 11.9016C7.60797 11.8043 7.55988 11.7149 7.48937 11.645L5.98937 10.145Z" fill="#FFFDF5"/>
<path d="M7.13428 13.5C5.34428 13.5 4.63428 13.325 4.63428 14C4.63428 14.675 5.31928 14.5 7.13428 14.5C7.26689 14.5 7.39406 14.4473 7.48783 14.3536C7.5816 14.2598 7.63428 14.1326 7.63428 14C7.63428 13.8674 7.5816 13.7402 7.48783 13.6465C7.39406 13.5527 7.26689 13.5 7.13428 13.5Z" fill="#FFFDF5"/>
<path d="M6.77952 15.645C5.42452 17.005 4.80452 17.375 5.27952 17.855C5.326 17.9018 5.3813 17.939 5.44223 17.9644C5.50316 17.9898 5.56851 18.0029 5.63452 18.0029C5.70052 18.0029 5.76588 17.9898 5.8268 17.9644C5.88773 17.939 5.94303 17.9018 5.98952 17.855C7.34452 16.495 7.96452 16.125 7.48952 15.645C7.44303 15.5981 7.38773 15.5609 7.3268 15.5355C7.26588 15.5101 7.20052 15.4971 7.13452 15.4971C7.06851 15.4971 7.00316 15.5101 6.94223 15.5355C6.8813 15.5609 6.826 15.5981 6.77952 15.645Z" fill="#FFFDF5"/>
<path d="M17.9895 8.85497C18.0837 8.76082 18.1366 8.63312 18.1366 8.49997C18.1366 8.36682 18.0837 8.23912 17.9895 8.14497C17.8954 8.05082 17.7677 7.99792 17.6345 7.99792C17.5014 7.99792 17.3737 8.05082 17.2795 8.14497C15.9245 9.50497 15.3045 9.87497 15.7795 10.355C16.2545 10.835 16.6345 10.19 17.9895 8.85497Z" fill="#FFFDF5"/>
<path d="M18.1343 11.5C16.3443 11.5 15.6343 11.325 15.6343 12C15.6343 12.675 16.3193 12.5 18.1343 12.5C18.2669 12.5 18.3941 12.4473 18.4878 12.3536C18.5816 12.2598 18.6343 12.1326 18.6343 12C18.6343 11.8674 18.5816 11.7402 18.4878 11.6465C18.3941 11.5527 18.2669 11.5 18.1343 11.5Z" fill="#FFFDF5"/>
<path d="M16.4894 13.645C16.3952 13.5508 16.2675 13.4979 16.1344 13.4979C16.0012 13.4979 15.8735 13.5508 15.7794 13.645C15.6852 13.7391 15.6323 13.8668 15.6323 14C15.6323 14.1331 15.6852 14.2608 15.7794 14.355C17.3394 15.91 17.3444 16 17.6344 16C17.7337 16.0005 17.8309 15.9715 17.9137 15.9166C17.9964 15.8617 18.061 15.7834 18.0991 15.6917C18.1371 15.6 18.147 15.499 18.1275 15.4016C18.108 15.3043 18.0599 15.2149 17.9894 15.145L16.4894 13.645Z" fill="#FFFDF5"/>
<path d="M9.13417 9.33999V12.5L10.1342 11.5L11.1342 12L12.1342 10.5L13.1342 11.5V8.80999C13.1342 5.49999 15.5142 4.91999 15.0792 3.02999C14.9902 2.66103 14.798 2.32502 14.5252 2.06119C14.2523 1.79737 13.9101 1.61662 13.5383 1.54007C13.1666 1.46352 12.7807 1.49433 12.4259 1.62889C12.071 1.76345 11.7617 1.99621 11.5342 2.29999C11.3762 1.76588 11.0444 1.29981 10.5914 0.975731C10.1384 0.651653 9.5902 0.488128 9.0337 0.511101C8.4772 0.534073 7.9443 0.742227 7.51956 1.10254C7.09482 1.46285 6.80257 1.95468 6.68917 2.49999C6.16417 5.02999 9.13417 4.88499 9.13417 9.33999Z" fill="#FFFDF5"/>
</svg>
