<svg width="25" height="24" viewBox="0 0 25 24" fill="none" xmlns="http://www.w3.org/2000/svg">
<g clipPath="url(#clip0_370_1290)">
<path d="M8.55286 0.600073C8.55308 0.440771 8.4898 0.288281 8.3773 0.175562C8.2648 0.0630615 8.11209 0 7.953 0H4.353C4.1937 0 4.04121 0.0630615 3.92849 0.175562C3.81599 0.288281 3.75293 0.440771 3.75293 0.600073V3.6H8.55286V0.600073Z" fill="#FFFDF5"/>
<path d="M20.5531 0.600073C20.5531 0.440771 20.49 0.288281 20.3773 0.175562C20.2648 0.0630615 20.1121 0 19.953 0H16.353C16.1939 0 16.0412 0.0630615 15.9287 0.175562C15.816 0.288281 15.7529 0.440771 15.7529 0.600073V3.6H20.5531V0.600073Z" fill="#FFFDF5"/>
<path d="M1.35303 14.4H4.95303V19.2H1.35303V14.4Z" fill="#FFFDF5"/>
<path d="M19.353 14.4H22.953V19.2H19.353V14.4Z" fill="#FFFDF5"/>
<path d="M22.3532 9.60007C21.3594 9.59897 20.5543 8.79368 20.5532 7.80007V4.79993H15.753C15.753 6.78823 14.1413 8.39993 12.153 8.39993C10.1649 8.39993 8.55303 6.78823 8.55303 4.79993H3.7531V7.80007C3.752 8.79368 2.9467 9.59897 1.9531 9.60007C1.79402 9.59985 1.64131 9.66313 1.52881 9.77563C1.41609 9.88813 1.35303 10.0408 1.35303 10.1999V13.2001H5.5531C5.71218 13.1999 5.86489 13.2631 5.97739 13.3756C6.09011 13.4881 6.15317 13.6408 6.15317 13.7999V19.8C6.15317 19.9591 6.09011 20.1118 5.97739 20.2243C5.86489 20.337 5.71218 20.4001 5.5531 20.4001H1.35303V23.4C1.35303 23.5591 1.41609 23.7118 1.52881 23.8243C1.64131 23.937 1.79402 24.0001 1.9531 24.0001H22.3532C22.5123 24.0001 22.665 23.937 22.7775 23.8243C22.89 23.7118 22.9532 23.5591 22.953 23.4V20.4001H18.7532C18.5939 20.4001 18.4414 20.337 18.3287 20.2243C18.2162 20.1118 18.1531 19.9591 18.1531 19.8V13.7999C18.1531 13.6408 18.2162 13.4881 18.3287 13.3756C18.4414 13.2631 18.5939 13.1999 18.7532 13.2001H22.953V10.1999C22.9532 10.0408 22.89 9.88813 22.7775 9.77563C22.665 9.66313 22.5123 9.59985 22.3532 9.60007V9.60007ZM13.953 20.4001H10.353C10.0217 20.4001 9.75317 20.1313 9.75317 19.8C9.75317 19.4687 10.0217 19.1999 10.353 19.1999H13.953C14.2844 19.1999 14.5531 19.4687 14.5531 19.8C14.5531 20.1313 14.2844 20.4001 13.953 20.4001ZM13.953 17.3999H10.353C10.0217 17.3999 9.75317 17.1314 9.75317 16.8001C9.75317 16.4687 10.0217 16.2 10.353 16.2H13.953C14.2844 16.2 14.5531 16.4687 14.5531 16.8001C14.5531 17.1314 14.2844 17.3999 13.953 17.3999ZM13.953 14.4H10.353C10.0217 14.4 9.75317 14.1313 9.75317 13.7999C9.75317 13.4686 10.0217 13.2001 10.353 13.2001H13.953C14.2844 13.2001 14.5531 13.4686 14.5531 13.7999C14.5531 14.1313 14.2844 14.4 13.953 14.4Z" fill="#FFFDF5"/>
</g>
<defs>
<clipPath id="clip0_370_1290">
<rect width="24" height="24" fill="white" transform="translate(0.134277)"/>
</clipPath>
</defs>
</svg>
