<svg width="24" height="24" viewBox="0 0 24 24" fill="none" xmlns="http://www.w3.org/2000/svg">
<path d="M10.0165 7H2.38017C2.18182 7.06612 1.82479 7.31736 1.98347 7.79339C2.14215 8.26942 2.77684 9.5124 3.07435 10.0744H1.98347L0 11.9587L1.9835 13.843H3.07438C2.77687 14.405 2.14218 15.6479 1.9835 16.124C1.82482 16.6 2.18185 16.8512 2.3802 16.9174H10.0166C10.1818 16.8843 10.5124 16.7388 10.5124 16.4215V14.0413H11.2066L12 16.6198C12.0331 16.719 12.1785 16.9174 12.4959 16.9174H15.967C16.1323 16.8843 16.4628 16.7388 16.4628 16.4215C16.4628 16.1041 16.1323 14.7025 15.967 14.0413H17.0579L17.9504 16.6198C17.9835 16.719 18.1488 16.9174 18.5455 16.9174H20.8265C20.9256 16.8843 21.124 16.7388 21.124 16.4215V15.4298H23.5041C23.9008 15.4298 24 15.1653 24 15.0331V8.78512C24 8.46777 23.8678 8.32231 23.8017 8.28926H21.124V7.49587C21.124 7.17851 20.9256 7.03306 20.8264 7H18.5455C18.1488 7 17.9835 7.19835 17.9504 7.29752L17.0578 9.87603H15.9669C16.1322 9.21488 16.4628 7.81322 16.4628 7.49587C16.4628 7.17851 16.1322 7.03306 15.9669 7H12.4959C12.1785 7 12.0331 7.19835 12 7.29752L11.2066 9.87603H10.5124V7.49587C10.5124 7.17851 10.1818 7.03306 10.0165 7Z" fill="#FFFDF5"/>
</svg>
