<svg width="24" height="24" viewBox="0 0 24 24" fill="none" xmlns="http://www.w3.org/2000/svg">
<g clipPath="url(#clip0_233_513)">
<path d="M12.4409 13.1528C12.4409 12.9097 12.2431 12.7119 12 12.7119C11.7569 12.7119 11.5591 12.9097 11.5591 13.1528V14.0604H12.4409L12.4409 13.1528Z" fill="#FFFDF5"/>
<path d="M11.5591 15.4667V16.3743C11.5591 16.6174 11.7569 16.8152 12 16.8152C12.2432 16.8152 12.4409 16.6174 12.4409 16.3743V15.4667H11.5591Z" fill="#FFFDF5"/>
<path d="M6.93506 3.59412V5.7289L8.87301 8.55574V24H15.1274V8.55569L17.0654 5.72885V3.59412H6.93506ZM13.8474 16.3743C13.8474 17.3928 13.0188 18.2214 12.0003 18.2214C10.9818 18.2214 10.1531 17.3928 10.1531 16.3743V13.1528C10.1531 12.1342 10.9818 11.3056 12.0003 11.3056C13.0188 11.3056 13.8474 12.1343 13.8474 13.1528V16.3743Z" fill="#FFFDF5"/>
<path d="M17.0647 0H6.93457V2.18789H17.0647V0Z" fill="#FFFDF5"/>
</g>
<defs>
<clipPath id="clip0_233_513">
<rect width="24" height="24" fill="white"/>
</clipPath>
</defs>
</svg>
