<svg width="25" height="24" viewBox="0 0 25 24" fill="none" xmlns="http://www.w3.org/2000/svg">
<g clipPath="url(#clip0_367_1300)">
<path d="M6.21595 10.5462L7.93786 12.5752V11.801L6.21595 3.71198C6.11806 3.1825 6.21594 2.05147 7.39058 1.76315C8.56522 1.47483 9.14364 2.42611 9.28602 2.93778L10.6208 9.29151V1.64301C10.5897 1.07794 10.8558 -0.0415258 12.1692 0.00118829C13.4827 0.0439024 13.7488 1.11354 13.7176 1.64301V8.21031L14.7988 2.93778C14.9278 2.4617 15.4769 1.56025 16.6409 1.76315C17.8048 1.96604 17.9445 3.02232 17.8689 3.5251L16.6409 9.59852L18.296 5.24702C18.4874 4.82433 19.129 4.08573 20.1648 4.51287C21.2006 4.94001 21.1303 5.98117 20.9657 6.44835C20.2716 8.33489 18.8486 12.1747 18.7098 12.4417C18.7232 14.1502 18.4696 16.8466 18.1759 17.9678C18.0157 18.8435 17.3973 19.2848 17.108 19.3961V24.0012H9.01905V23.2804H14.5452C14.8255 23.2804 15.306 23.3872 15.5597 23.0001C16.0135 21.7987 15.7465 20.3037 15.5597 19.93C15.4102 19.631 15.1058 19.5829 14.9723 19.5963H9.01905V19.3961C7.33274 17.3227 3.93608 13.1518 3.83997 13.0557C3.71984 12.9356 2.53185 11.4673 3.83997 10.4261C4.88647 9.59318 5.86 10.1591 6.21595 10.5462Z" fill="#FFFDF5"/>
<path d="M14.8364 19.9788H8.87155C8.80643 19.9788 8.63191 20.0197 8.45479 20.1835C8.15524 20.8094 8.27246 22.4225 8.45479 22.6512C8.48605 22.8053 8.74565 22.8679 8.87155 22.8799H14.563C15.2011 22.8799 14.9276 22.8077 15.2011 22.6512C15.4486 21.64 15.3314 20.689 15.2011 20.2918C15.0969 19.974 14.9146 19.9507 14.8364 19.9788Z" fill="#FFFDF5"/>
</g>
<defs>
<clipPath id="clip0_367_1300">
<rect width="24" height="24" fill="white" transform="translate(0.134277)"/>
</clipPath>
</defs>
</svg>
