<svg width="24" height="24" viewBox="0 0 24 24" fill="none" xmlns="http://www.w3.org/2000/svg">
<path d="M23.0204 11.0206H20.4382C19.9645 7.16249 16.87 4.09787 12.9799 3.63866V0.979587C12.9798 0.438478 12.5409 0 12.0002 0C11.4591 0 11.0206 0.438478 11.0206 0.979587V3.62964C7.0979 4.06065 3.97022 7.1394 3.49332 11.0202H0.979587C0.438478 11.0202 0 11.4587 0 11.9998C0 12.5409 0.438478 12.9794 0.979587 12.9794H3.47997C3.91333 16.9088 7.06299 20.038 11.0206 20.473V23.0204C11.0206 23.5615 11.4591 24 12.0002 24C12.5409 24 12.9798 23.5615 12.9798 23.0204V20.4644C16.9045 20.0012 20.0204 16.8864 20.4514 12.9798H23.0204C23.5615 12.9798 24 12.5413 24 12.0002C24 11.4591 23.5615 11.0206 23.0204 11.0206ZM12.9798 18.4817V15.2505C12.9798 14.7094 12.5409 14.2709 12.0002 14.2709C11.4591 14.2709 11.0206 14.7094 11.0206 15.2505V18.4919C8.14724 18.0797 5.87453 15.8262 5.46194 12.9798H8.7499C9.29106 12.9798 9.72949 12.5413 9.72949 12.0002C9.72949 11.4591 9.29101 11.0206 8.7499 11.0206H5.47761C5.92978 8.22249 8.18209 6.01876 11.0206 5.61123V8.7499C11.0206 9.29106 11.4591 9.72949 12.0002 9.72949C12.5409 9.72949 12.9798 9.29101 12.9798 8.7499V5.62141C15.7858 6.05439 18.0052 8.24481 18.4538 11.0206H15.2501C14.709 11.0206 14.2706 11.4591 14.2706 12.0002C14.2706 12.5413 14.709 12.9798 15.2501 12.9798H18.4699C18.0601 15.8038 15.8207 18.0432 12.9798 18.4817Z" fill="#FFFDF5"/>
</svg>
