<svg width="25" height="24" viewBox="0 0 25 24" fill="none" xmlns="http://www.w3.org/2000/svg">
<g clipPath="url(#clip0_370_1539)">
<path d="M6.50928 14.0625C7.15649 14.0625 7.68115 13.5378 7.68115 12.8906C7.68115 12.2434 7.15649 11.7188 6.50928 11.7188C5.86207 11.7188 5.3374 12.2434 5.3374 12.8906C5.3374 13.5378 5.86207 14.0625 6.50928 14.0625Z" fill="#FFFDF5"/>
<path d="M16.1187 9.92395V16.4463L24.0874 19.4346V11.9161L16.1187 9.92395Z" fill="#FFFDF5"/>
<path d="M12.8374 10.0042V14.7286C12.8374 15.0217 13.0192 15.284 13.2936 15.387L14.7124 15.919V9.57241L13.7111 9.32205C13.2673 9.21114 12.8374 9.54677 12.8374 10.0042Z" fill="#FFFDF5"/>
<path d="M12.7999 16.7037C11.9766 16.3949 11.4312 15.6079 11.4312 14.7286V10.0042C11.4312 8.63194 12.7208 7.62502 14.0521 7.95788L24.0708 10.4625C23.9251 7.73353 22.7934 5.18836 20.8462 3.24117C18.7561 1.15106 15.9772 0 13.0213 0C8.63675 0 4.31732 1.16775 0.530004 3.37702C0.341661 3.48689 0.214957 3.67791 0.186973 3.89414C0.158989 4.11037 0.232911 4.32736 0.387129 4.48153L1.88957 5.98397C0.770332 8.11908 0.181161 10.5053 0.181161 12.9198V15.2827C0.181161 17.2809 1.5268 19.0466 3.4535 19.5764L19.0178 23.8566C19.3639 23.9518 19.7214 24 20.0803 24C21.9787 24 23.5719 22.6726 23.9832 20.8974L12.7999 16.7037ZM6.50929 15.4688C5.08771 15.4688 3.93116 14.3122 3.93116 12.8906C3.93116 11.469 5.08771 10.3125 6.50929 10.3125C7.93086 10.3125 9.08741 11.469 9.08741 12.8906C9.08741 14.3122 7.93086 15.4688 6.50929 15.4688Z" fill="#FFFDF5"/>
</g>
<defs>
<clipPath id="clip0_370_1539">
<rect width="24" height="24" fill="white" transform="translate(0.134277)"/>
</clipPath>
</defs>
</svg>
