<svg width="17" height="24" viewBox="0 0 17 24" fill="none" xmlns="http://www.w3.org/2000/svg">
<g clipPath="url(#clip0_302_736)">
<path d="M8.29246 0C4.205 0 0.0673828 2.0521 0.0673828 5.97466V15.9664C0.0673828 20.3804 3.65811 23.9712 8.07216 23.9712C12.4861 23.9712 16.0769 20.3804 16.0769 15.9664V5.97466C16.0769 1.86951 12.0419 0 8.29246 0ZM14.5702 15.9664C14.5702 19.5498 11.6551 22.4643 8.07216 22.4643C4.48903 22.4643 1.57421 19.5498 1.57421 15.9664V11.2932C2.91969 11.7003 5.45219 12.3161 8.44621 12.3161C10.3632 12.3161 12.4685 12.06 14.5702 11.3368V15.9664ZM14.5702 9.73405C9.07895 11.8337 3.25239 10.2528 1.57421 9.70958V5.97466C1.57421 3.07261 5.03565 1.50676 8.29246 1.50676C11.4172 1.50676 14.5702 2.88807 14.5702 5.97466V9.73405ZM7.6735 2.69365V9.66252C5.52224 9.91597 2.63148 9.0084 2.63148 9.0084C2.05058 3.02521 5.95922 2.69365 7.6735 2.69365Z" fill="#FFFDF5"/>
</g>
<defs>
<clipPath id="clip0_302_736">
<rect width="16.0672" height="24" fill="white" transform="translate(0.0673828)"/>
</clipPath>
</defs>
</svg>
