<svg width="25" height="24" viewBox="0 0 25 24" fill="none" xmlns="http://www.w3.org/2000/svg">
<path d="M19.9101 0C19.7258 0 19.5352 0.0884416 19.4126 0.231073C19.2974 0.364816 19.2489 0.537255 19.2758 0.716544C20.0925 6.13391 17.4713 11.6839 12.7532 14.5274C12.73 14.5412 12.7081 14.5565 12.6866 14.5737C12.5359 14.5354 12.3792 14.516 12.2205 14.516C12.1909 14.516 12.1612 14.5167 12.1369 14.5182C11.9454 14.5085 11.7604 14.5283 11.5816 14.5737C11.5601 14.5565 11.5382 14.5412 11.515 14.5274C6.7967 11.6839 4.17538 6.13382 4.99227 0.716462C5.01922 0.537255 4.9707 0.364857 4.85543 0.230951C4.73286 0.0884416 4.54207 0 4.35776 0C4.10239 0 3.91923 0.162979 3.87951 0.425245C2.99775 6.27483 5.61572 12.0979 10.5523 15.28C10.4377 15.4403 10.3491 15.6169 10.2882 15.8035C10.2475 15.928 10.2192 16.057 10.2037 16.1882C10.1899 16.3055 10.1879 16.4247 10.1949 16.5444C8.97748 17.2251 8.15398 18.526 8.15398 20.0199C8.15398 22.218 9.93598 24 12.1341 24C14.3323 24 16.1143 22.218 16.1143 20.0199C16.1143 18.5259 15.2908 17.2251 14.0733 16.5444C14.0803 16.4246 14.0783 16.3055 14.0645 16.1882C14.049 16.057 14.0207 15.928 13.98 15.8035C13.9191 15.6169 13.8305 15.4403 13.7159 15.28C18.6524 12.0978 21.2703 6.27483 20.3886 0.425245C20.3487 0.162979 20.1656 0 19.9101 0ZM11.4739 15.942C11.5424 15.8599 11.6314 15.7942 11.7316 15.7474C11.8414 15.6961 11.9649 15.6675 12.0922 15.6675C12.1051 15.6675 12.1181 15.6679 12.1366 15.6684C12.2778 15.6615 12.4152 15.6908 12.5359 15.7474C12.6362 15.7945 12.7253 15.86 12.7938 15.9422C12.8305 15.9863 12.8681 16.044 12.8969 16.1139C12.6499 16.0658 12.3949 16.04 12.1337 16.04C11.8725 16.04 11.6176 16.066 11.3705 16.1139C11.3996 16.0437 11.4371 15.9862 11.4739 15.942ZM15.3166 20.0198C15.3166 21.7746 13.8889 23.2024 12.134 23.2024C10.379 23.2024 8.95142 21.7748 8.95142 20.0198C8.95142 18.7981 9.64379 17.7355 10.6564 17.2024C10.6882 17.1856 10.7201 17.1688 10.7526 17.1531C10.8814 17.0908 11.0151 17.0375 11.1529 16.9927C11.1861 16.982 11.2195 16.9719 11.2532 16.9622C11.5332 16.8815 11.8284 16.8374 12.1341 16.8374C12.4397 16.8374 12.7351 16.8816 13.0149 16.9622C13.0486 16.972 13.082 16.982 13.1152 16.9927C13.2529 17.0374 13.3868 17.0907 13.5155 17.1531C13.5479 17.1688 13.5797 17.1856 13.6117 17.2024C14.6241 17.7357 15.3166 18.7982 15.3166 20.0198Z" fill="#FFFDF5"/>
<path d="M12.1339 22.5786C13.5471 22.5786 14.6927 21.433 14.6927 20.0199C14.6927 18.6067 13.5471 17.4611 12.1339 17.4611C10.7208 17.4611 9.5752 18.6067 9.5752 20.0199C9.5752 21.433 10.7208 22.5786 12.1339 22.5786Z" fill="#FFFDF5"/>
</svg>
