<svg width="24" height="24" viewBox="0 0 24 24" fill="none" xmlns="http://www.w3.org/2000/svg">
<path d="M3.70063 12.9513C3.85618 11.4088 5.18283 10.223 6.24268 9.56755C4.64205 10.5141 2.38306 12.4009 2.13092 14.8102C1.83069 17.6791 4.39959 19.0393 5.91062 19.4566C6.27066 19.556 6.57064 19.6019 6.75743 19.6019C7.00254 19.6019 7.38459 19.5874 7.83145 19.499C9.15433 19.237 11.6318 18.7332 11.6318 15.2233C11.6318 12.3924 8.41664 9.80502 7.02593 9.15097C7.9829 9.73617 9.88032 11.427 9.81423 13.509C9.73161 16.1114 7.81079 16.669 6.46827 16.6277C5.12576 16.5864 3.45278 15.4091 3.70063 12.9513Z" fill="#FFFDF5"/>
<path fill-rule="evenodd" clip-rule="evenodd" d="M6.39118 6.11702C6.32643 6.09222 6.24077 6.08262 6.12531 6.10788C5.96539 6.14286 5.84451 6.24767 5.75615 6.45835C5.66381 6.67855 5.61795 6.99404 5.61795 7.39415C5.61795 7.66868 5.54679 7.94713 5.28705 8.10058C5.05374 8.23843 4.73883 8.22711 4.38924 8.15296L4.4921 7.66805C4.8241 7.73847 4.97391 7.70985 5.03491 7.67381C5.06949 7.65337 5.12226 7.60135 5.12226 7.39415C5.12226 6.96811 5.16935 6.57587 5.29903 6.26664C5.4327 5.94791 5.66294 5.7016 6.01938 5.62363C6.21372 5.58112 6.39959 5.58942 6.56849 5.65412C6.73722 5.71875 6.87181 5.83306 6.97447 5.97479C7.17472 6.25125 7.26276 6.64284 7.27369 7.05839C7.2886 7.62483 7.2824 8.50734 7.276 8.99809C8.00967 9.3766 9.10123 10.1716 10.0343 11.2047C11.0282 12.3052 11.8796 13.7174 11.8796 15.2233C11.8796 17.046 11.2314 18.1265 10.3778 18.7763C9.62331 19.3508 8.73139 19.5689 8.08173 19.7016C8.07487 19.8458 8.05054 20.0067 7.99958 20.1652C7.94418 20.3375 7.85383 20.5168 7.71183 20.6659C7.93293 20.9693 8.08563 21.3114 8.12212 21.6571C8.1681 22.0928 8.0265 22.5221 7.63549 22.8479C7.4511 23.0016 7.16822 23.0699 6.91206 23.0757C6.65212 23.0816 6.35128 23.0249 6.12833 22.8544C5.88139 22.6655 5.72679 22.4439 5.65106 22.2035C5.57609 21.9655 5.58385 21.7267 5.63234 21.5088C5.70395 21.187 5.86866 20.8916 6.02465 20.6687C5.87732 20.5124 5.78637 20.3226 5.73232 20.1414C5.68107 19.9695 5.65953 19.7947 5.65651 19.6404C4.89902 19.4059 3.93788 18.9582 3.17121 18.2328C2.33206 17.4388 1.72489 16.3088 1.88442 14.7844C2.0178 13.5099 2.67973 12.389 3.4963 11.4752C4.31308 10.5611 5.29873 9.83805 6.11442 9.35545C6.35339 9.20776 6.58038 9.08544 6.78036 8.99056C6.78673 8.50173 6.79281 7.62767 6.77817 7.07143C6.76845 6.70214 6.6895 6.42638 6.57303 6.26558C6.51733 6.18868 6.45611 6.14189 6.39118 6.11702ZM3.67154 12.0311C2.99203 12.85 2.48606 13.7979 2.37743 14.836C2.23673 16.1804 2.76389 17.165 3.51189 17.8727C4.26732 18.5875 5.24672 19.0162 5.97659 19.2177C6.32604 19.3142 6.60195 19.3541 6.75743 19.3541C6.99261 19.3541 7.35743 19.3402 7.7833 19.2558C8.44926 19.124 9.34439 18.9401 10.0776 18.3819C10.7934 17.8369 11.3839 16.9105 11.3839 15.2233C11.3839 13.8983 10.6278 12.6014 9.66644 11.5369C9.60515 11.4691 9.54317 11.4023 9.48068 11.3367C9.84317 11.9783 10.0874 12.7167 10.062 13.5168C10.0185 14.8866 9.4856 15.7534 8.75558 16.263C8.03835 16.7636 7.16323 16.8971 6.46065 16.8755C5.72451 16.8528 4.90677 16.5206 4.3052 15.863C3.69846 15.1998 3.32365 14.2194 3.45403 12.9264C3.48568 12.6126 3.56174 12.3138 3.67154 12.0311ZM7.00912 9.43367C6.81697 9.52771 6.60142 9.64342 6.37095 9.77963C5.32561 10.4266 4.09042 11.5562 3.94723 12.9762C3.82976 14.1411 4.16752 14.9782 4.67093 15.5284C5.17952 16.0843 5.86952 16.3613 6.47589 16.38C7.11582 16.3997 7.87237 16.275 8.47185 15.8565C9.05852 15.447 9.52737 14.7338 9.5665 13.5011C9.59706 12.5387 9.1736 11.6509 8.60779 10.9205C8.08723 10.2485 7.46089 9.72928 7.00912 9.43367ZM6.16175 19.7735C6.17036 19.8478 6.185 19.9247 6.20735 19.9997C6.26223 20.1838 6.35594 20.3324 6.49558 20.419C6.58171 20.4724 6.69833 20.5107 6.8607 20.5107C6.92379 20.5107 7.01933 20.4889 7.11496 20.4581C7.15938 20.4439 7.19831 20.4295 7.22601 20.4187C7.23608 20.4148 7.24455 20.4115 7.25116 20.4088C7.38376 20.3224 7.47335 20.1824 7.52768 20.0135C7.55118 19.9404 7.56682 19.8655 7.5763 19.7934C7.24007 19.8407 6.95532 19.8498 6.75743 19.8498C6.60426 19.8498 6.39885 19.8242 6.16175 19.7735ZM7.28593 20.9238C7.2796 20.9259 7.27315 20.928 7.26661 20.9301C7.16169 20.9638 7.00486 21.0064 6.8607 21.0064C6.70643 21.0064 6.56641 20.9829 6.44077 20.9388C6.30564 21.1293 6.17089 21.3707 6.1162 21.6165C6.08171 21.7714 6.0811 21.9189 6.12385 22.0546C6.16584 22.1879 6.25503 22.3272 6.42944 22.4606C6.53059 22.538 6.70479 22.5845 6.90084 22.5801C7.10065 22.5756 7.25468 22.52 7.31815 22.4671C7.5734 22.2544 7.65899 21.9918 7.62916 21.7091C7.60261 21.4576 7.4824 21.1828 7.28593 20.9238Z" fill="#FFFDF5"/>
<path d="M13.9448 8.26278C14.1003 6.72027 15.427 5.53451 16.4868 4.87901C14.8862 5.82554 12.6272 7.71234 12.3751 10.1216C12.0748 12.9906 14.6437 14.3508 16.1548 14.7681C16.5148 14.8675 16.8148 14.9134 17.0016 14.9134C17.2467 14.9134 17.6287 14.8989 18.0756 14.8104C19.3985 14.5485 21.8759 14.0447 21.8759 10.5347C21.8759 7.70389 18.6608 5.11648 17.2701 4.46244C18.227 5.04763 20.1245 6.73851 20.0584 8.82044C19.9758 11.4228 18.0549 11.9805 16.7124 11.9392C15.3699 11.8979 13.6969 10.7206 13.9448 8.26278Z" fill="#FFFDF5"/>
<path fill-rule="evenodd" clip-rule="evenodd" d="M16.6353 1.42848C16.5706 1.40368 16.4849 1.39408 16.3694 1.41934C16.2095 1.45432 16.0887 1.55913 16.0003 1.76982C15.9079 1.99001 15.8621 2.3055 15.8621 2.70562C15.8621 2.98015 15.7909 3.25859 15.5312 3.41205C15.2979 3.54989 14.983 3.53858 14.6334 3.46442L14.7362 2.97951C15.0682 3.04994 15.218 3.02131 15.2791 2.98527C15.3136 2.96484 15.3664 2.91281 15.3664 2.70562C15.3664 2.27957 15.4135 1.88733 15.5432 1.57811C15.6768 1.25937 15.9071 1.01306 16.2635 0.935093C16.4579 0.89258 16.6437 0.900885 16.8126 0.965583C16.9814 1.03021 17.1159 1.14452 17.2186 1.28625C17.4189 1.56271 17.5069 1.9543 17.5178 2.36986C17.5327 2.93629 17.5265 3.8188 17.5201 4.30956C18.2538 4.68806 19.3454 5.48302 20.2785 6.51616C21.2723 7.61664 22.1238 9.02888 22.1238 10.5347C22.1238 12.3575 21.4755 13.4379 20.622 14.0878C19.8674 14.6622 18.9755 14.8804 18.3259 15.0131C18.319 15.1573 18.2947 15.3182 18.2437 15.4767C18.1883 15.649 18.098 15.8282 17.956 15.9774C18.1771 16.2808 18.3298 16.6229 18.3663 16.9686C18.4122 17.4042 18.2706 17.8335 17.8796 18.1594C17.6952 18.313 17.4124 18.3813 17.1562 18.3871C16.8963 18.393 16.5954 18.3363 16.3725 18.1658C16.1255 17.977 15.9709 17.7554 15.8952 17.515C15.8202 17.277 15.828 17.0381 15.8765 16.8202C15.9481 16.4984 16.1128 16.203 16.2688 15.9802C16.1215 15.8239 16.0305 15.6341 15.9765 15.4528C15.9252 15.2809 15.9037 15.1062 15.9007 14.9519C15.1432 14.7173 14.182 14.2696 13.4153 13.5443C12.5762 12.7503 11.969 11.6203 12.1286 10.0958C12.2619 8.82137 12.9239 7.70047 13.7404 6.78664C14.5572 5.8726 15.5429 5.14951 16.3586 4.66691C16.5975 4.51922 16.8245 4.3969 17.0245 4.30202C17.0309 3.81319 17.0369 2.93913 17.0223 2.3829C17.0126 2.0136 16.9336 1.73784 16.8172 1.57704C16.7615 1.50015 16.7003 1.45335 16.6353 1.42848ZM13.9157 7.34256C13.2362 8.16143 12.7302 9.10939 12.6216 10.1474C12.4809 11.4919 13.008 12.4765 13.756 13.1842C14.5115 13.8989 15.4909 14.3276 16.2207 14.5292C16.5702 14.6257 16.8461 14.6655 17.0016 14.6655C17.2367 14.6655 17.6016 14.6516 18.0274 14.5673C18.6934 14.4354 19.5885 14.2516 20.3217 13.6934C21.0376 13.1484 21.6281 12.222 21.6281 10.5347C21.6281 9.20974 20.8719 7.91285 19.9106 6.84841C19.8493 6.78054 19.7873 6.71379 19.7248 6.6482C20.0873 7.2898 20.3315 8.02817 20.3061 8.8283C20.2626 10.198 19.7297 11.0649 18.9997 11.5744C18.2825 12.0751 17.4074 12.2086 16.7048 12.1869C15.9686 12.1643 15.1509 11.832 14.5493 11.1745C13.9426 10.5113 13.5678 9.53086 13.6982 8.23791C13.7298 7.92408 13.8059 7.62529 13.9157 7.34256ZM17.2533 4.74514C17.0611 4.83917 16.8456 4.95488 16.6151 5.0911C15.5697 5.73811 14.3346 6.86763 14.1914 8.28765C14.0739 9.45253 14.4117 10.2896 14.9151 10.8399C15.4237 11.3958 16.1137 11.6728 16.72 11.6915C17.36 11.7112 18.1165 11.5864 18.716 11.168C19.3027 10.7585 19.7715 10.0453 19.8106 8.81257C19.8412 7.85015 19.4177 6.96236 18.8519 6.23194C18.3314 5.55995 17.705 5.04075 17.2533 4.74514ZM16.4059 15.0849C16.4145 15.1593 16.4291 15.2362 16.4515 15.3112C16.5064 15.4952 16.6001 15.6439 16.7397 15.7305C16.8259 15.7838 16.9425 15.8222 17.1048 15.8222C17.1679 15.8222 17.2635 15.8003 17.3591 15.7696C17.4035 15.7553 17.4425 15.741 17.4702 15.7302C17.4802 15.7263 17.4887 15.7229 17.4953 15.7202C17.6279 15.6339 17.7175 15.4939 17.7718 15.325C17.7953 15.2519 17.811 15.177 17.8204 15.1048C17.4842 15.1522 17.1995 15.1612 17.0016 15.1612C16.8484 15.1612 16.643 15.1356 16.4059 15.0849ZM17.5301 16.2352C17.5237 16.2373 17.5173 16.2394 17.5107 16.2415C17.4058 16.2752 17.249 16.3179 17.1048 16.3179C16.9506 16.3179 16.8105 16.2944 16.6849 16.2502C16.5498 16.4407 16.415 16.6822 16.3603 16.9279C16.3259 17.0829 16.3252 17.2303 16.368 17.366C16.41 17.4993 16.4992 17.6387 16.6736 17.7721C16.7747 17.8494 16.9489 17.896 17.145 17.8916C17.3448 17.887 17.4988 17.8314 17.5623 17.7786C17.8175 17.5658 17.9031 17.3032 17.8733 17.0206C17.8468 16.7691 17.7265 16.4943 17.5301 16.2352Z" fill="#FFFDF5"/>
</svg>
