<svg width="25" height="24" viewBox="0 0 25 24" fill="none" xmlns="http://www.w3.org/2000/svg">
<path d="M20.0066 19.656C19.5748 19.656 19.0707 19.8645 18.4949 20.2799L15.3023 19.104L18.5423 17.9273C19.0866 18.2799 19.5903 18.4562 20.0549 18.4562C20.5662 18.4562 20.9024 18.1917 21.0629 17.6644C21.0947 17.5524 21.1107 17.4314 21.1107 17.3034C21.1107 16.6327 20.6785 16.2718 19.8145 16.2244C20.166 15.8725 20.343 15.5275 20.343 15.1915C20.343 14.8405 20.1581 14.5433 19.7906 14.3032C19.5986 14.2081 19.3984 14.1596 19.1908 14.1596C18.4864 14.1596 18.0063 14.727 17.7503 15.8639L12.1341 17.9529L6.51799 15.9124C6.26203 14.7442 5.78129 14.1596 5.07769 14.1596C4.86978 14.1596 4.66958 14.2081 4.47745 14.3032C4.12601 14.5432 3.94975 14.8405 3.94975 15.1915C3.94975 15.5275 4.12601 15.8725 4.47745 16.2244C3.59786 16.2718 3.15774 16.6327 3.15774 17.3035C3.15774 17.4314 3.17397 17.5525 3.20544 17.6644C3.38188 18.1917 3.71781 18.4562 4.21387 18.4562C4.67747 18.4562 5.18142 18.2799 5.72598 17.9274L8.98993 19.104L5.77331 20.2554C5.21342 19.8559 4.71818 19.656 4.28614 19.656C3.77349 19.656 3.41362 19.9205 3.20544 20.4478C3.173 20.5651 3.15695 20.6864 3.15774 20.8082C3.15774 21.4796 3.59777 21.8405 4.47745 21.8878C4.12601 22.2399 3.94975 22.5849 3.94975 22.9208C3.94975 23.2716 4.12601 23.5677 4.47745 23.8091C4.70204 23.9371 4.91756 24 5.12602 24C5.78129 24 6.25423 23.44 6.5422 22.3203L12.1341 20.2799L17.7265 22.3203C18.0146 23.4401 18.4949 24 19.1665 24C19.3588 24 19.5661 23.9371 19.7907 23.8091C20.1581 23.5677 20.343 23.2716 20.343 22.9208C20.343 22.5849 20.166 22.2399 19.8146 21.8878C20.6785 21.8405 21.1108 21.4796 21.1108 20.8082C21.1108 20.6793 21.0947 20.5598 21.063 20.4478C20.8707 19.9204 20.5188 19.656 20.0066 19.656Z" fill="#FFFDF5"/>
<path d="M4.526 11.6878C5.40577 12.6955 6.64578 13.4325 8.24666 13.8952V14.2566C8.24666 14.7042 8.39826 15.0805 8.70228 15.384C9.00602 15.6884 9.38212 15.8564 9.83031 15.8884C10.2942 15.9207 10.6377 15.8405 10.862 15.6484C11.2137 15.9039 11.6058 16.0319 12.0383 16.0319C12.4382 16.0319 12.8067 15.9126 13.1422 15.6726C13.3663 15.8479 13.6941 15.9208 14.1265 15.8884C14.5742 15.8406 14.9506 15.6685 15.2545 15.3726C15.5582 15.0751 15.7101 14.7043 15.7101 14.2567V13.9929C17.438 13.5445 18.7743 12.7927 19.7186 11.7354C20.6307 10.7281 21.0866 9.53635 21.0866 8.15979C21.0866 7.85523 21.0544 7.53544 20.9902 7.19896C20.6706 5.15244 19.7264 3.46325 18.1587 2.13556C16.5104 0.712307 14.5023 0 12.1342 0C9.76566 0 7.75758 0.704237 6.1101 2.11099C4.54178 3.45617 3.60597 5.15235 3.30204 7.19887C3.23775 7.53534 3.20557 7.85514 3.20557 8.1597C3.20557 9.5038 3.64541 10.679 4.526 11.6878ZM13.9946 5.50814C14.4666 4.95641 15.0386 4.68032 15.7103 4.68032C16.3987 4.68032 16.9784 4.95641 17.4506 5.50814C17.9221 6.05905 18.1587 6.72729 18.1587 7.51077C18.1587 8.29498 17.9222 8.9634 17.4506 9.51531C16.9784 10.0681 16.3986 10.3431 15.7103 10.3431C15.0386 10.3431 14.4666 10.0681 13.9946 9.51531C13.5221 8.9634 13.2861 8.29498 13.2861 7.51077C13.286 6.72729 13.5221 6.05905 13.9946 5.50814ZM11.4504 11.0099C11.6822 10.7101 11.9097 10.5595 12.1342 10.5595C12.3582 10.5595 12.5696 10.7255 12.77 11.059C12.97 11.391 13.0708 11.7068 13.0708 12.0082C13.0708 12.4672 12.766 12.6956 12.158 12.6956C11.7578 12.6956 11.4619 12.5926 11.2702 12.3877C11.158 12.2597 11.1025 12.1023 11.1025 11.9117C11.1026 11.6117 11.2183 11.3113 11.4504 11.0099ZM6.61405 5.50814C7.09415 4.95641 7.67036 4.68032 8.34213 4.68032C9.01364 4.68032 9.58994 4.95641 10.0703 5.50814C10.5505 6.05905 10.791 6.72729 10.791 7.51077C10.791 8.29498 10.5506 8.9634 10.0703 9.51531C9.59003 10.0681 9.01364 10.3431 8.34213 10.3431C7.67036 10.3431 7.09415 10.0681 6.61405 9.51531C6.13422 8.9634 5.89376 8.29498 5.89376 7.51077C5.89376 6.72729 6.13422 6.05905 6.61405 5.50814Z" fill="#FFFDF5"/>
</svg>
