<svg width="24" height="24" viewBox="0 0 24 24" fill="none" xmlns="http://www.w3.org/2000/svg">
<path d="M21.6796 8.84961H18.2624C18.1645 9.34406 17.9563 9.81823 17.6389 10.2276L16.8566 11.2367H20.486V21.6129H3.51409V11.2367H6.72223L5.93989 10.2276C5.62256 9.81823 5.4144 9.34406 5.31637 8.84961H2.32052C1.66135 8.84961 1.12695 9.38401 1.12695 10.0432V22.8065C1.12695 23.4656 1.66135 24 2.32052 24H21.6796C22.3388 24 22.8732 23.4656 22.8732 22.8065V10.0432C22.8732 9.38401 22.3388 8.84961 21.6796 8.84961Z" fill="#FFFDF5"/>
<path d="M5.28378 1.0937C6.78489 1.9631 7.98243 3.29774 8.68099 4.89983C9.00564 5.64438 9.22263 6.44645 9.31167 7.28696H8.55065C8.20086 7.28696 7.88162 7.48605 7.72773 7.80012C7.57384 8.11418 7.61211 8.48849 7.8264 8.76492L11.0651 12.9424C11.2387 13.1663 11.5061 13.2974 11.7894 13.2974C12.0728 13.2974 12.3401 13.1663 12.5137 12.9424L15.7524 8.76492C15.9667 8.48849 16.005 8.11418 15.8511 7.80012C15.6972 7.48605 15.3779 7.28696 15.0281 7.28696H14.1113C14.0223 6.44653 13.8054 5.64438 13.4809 4.89983C12.2236 2.01609 9.34811 0 6.00135 0C5.84714 0 5.69389 0.00429684 5.54175 0.0127314C5.28577 0.0269746 5.0695 0.207681 5.01006 0.457056C4.95046 0.706432 5.06186 0.965198 5.28378 1.0937Z" fill="#FFFDF5"/>
<path d="M16.9055 19.2064C17.5647 19.2064 18.099 18.672 18.099 18.0128C18.099 17.3537 17.5647 16.8193 16.9055 16.8193C16.2463 16.8193 15.7119 17.3537 15.7119 18.0128C15.7119 18.672 16.2463 19.2064 16.9055 19.2064Z" fill="#FFFDF5"/>
<path d="M12.278 19.2064C12.9372 19.2064 13.4716 18.672 13.4716 18.0128C13.4716 17.3537 12.9372 16.8193 12.278 16.8193C11.6189 16.8193 11.0845 17.3537 11.0845 18.0128C11.0845 18.672 11.6189 19.2064 12.278 19.2064Z" fill="#FFFDF5"/>
</svg>
