<svg width="17" height="24" viewBox="0 0 17 24" fill="none" xmlns="http://www.w3.org/2000/svg">
<g clipPath="url(#clip0_302_727)">
<path d="M7.7844 0C11.8719 0 16.0095 2.0521 16.0095 5.97466V15.9664C16.0095 20.3804 12.4188 23.9712 8.00471 23.9712C3.59072 23.9712 0 20.3804 0 15.9664V5.97466C0 1.86951 4.03496 0 7.7844 0ZM1.50662 15.9664C1.50662 19.5498 4.42171 22.4643 8.00471 22.4643C11.5878 22.4643 14.5027 19.5498 14.5027 15.9664V11.2932C13.1572 11.7003 10.6247 12.3161 7.63066 12.3161C5.71368 12.3161 3.6084 12.06 1.50662 11.3368V15.9664ZM1.50662 9.73405C6.99792 11.8337 12.8245 10.2528 14.5027 9.70958V5.97466C14.5027 3.07261 11.0412 1.50676 7.7844 1.50676C4.65963 1.50676 1.50662 2.88807 1.50662 5.97466V9.73405ZM8.40336 2.69365V9.66252C10.5546 9.91597 13.4454 9.0084 13.4454 9.0084C14.0263 3.02521 10.1176 2.69365 8.40336 2.69365Z" fill="#FFFDF5"/>
</g>
<defs>
<clipPath id="clip0_302_727">
<rect width="16.0672" height="24" fill="white"/>
</clipPath>
</defs>
</svg>
