<svg width="24" height="24" viewBox="0 0 24 24" fill="none" xmlns="http://www.w3.org/2000/svg">
<path d="M11.9999 24C17.613 24 22.1795 19.4335 22.1795 13.8204C22.1795 9.5685 19.5582 5.91913 15.8475 4.39832L14.4883 6.27106C17.6568 7.31813 19.9504 10.3056 19.9504 13.8204C19.9504 18.2044 16.3838 21.7709 11.9999 21.7709C7.61595 21.7709 4.0494 18.2044 4.0494 13.8204C4.0494 10.3056 6.34302 7.31813 9.51126 6.27106L8.15213 4.39832C4.44161 5.91918 1.82031 9.5685 1.82031 13.8204C1.82031 19.4335 6.38686 24 11.9999 24Z" fill="#FFFDF5"/>
<path d="M10.2766 6.06033L10.9987 7.05523L12 6.98451L13.0014 7.05523L13.7234 6.06033L15.1223 4.13274L16.7555 1.88242L15.2285 0H12H8.77154L7.24463 1.88242L8.87782 4.13274L10.2766 6.06033Z" fill="#FFFDF5"/>
</svg>
