<svg width="18" height="20" viewBox="0 0 18 20" fill="none" xmlns="http://www.w3.org/2000/svg">
<path d="M9.00008 19.85C8.65063 19.8555 8.30584 19.7693 8.00008 19.6L7.70008 19.43C5.36335 18.108 3.41934 16.1895 2.06655 13.8704C0.713767 11.5514 0.000670048 8.91482 8.0152e-05 6.23003V6.09003C-0.00308979 5.73592 0.0878186 5.38731 0.263514 5.07985C0.439209 4.77238 0.693391 4.51708 1.00008 4.34003L8.00008 0.400029C8.30412 0.224493 8.64901 0.13208 9.00008 0.13208C9.35115 0.13208 9.69604 0.224493 10.0001 0.400029L17.0001 4.34003C17.3068 4.51708 17.561 4.77238 17.7366 5.07985C17.9123 5.38731 18.0033 5.73592 18.0001 6.09003V6.23003C17.9975 8.9168 17.2814 11.5547 15.925 13.8739C14.5686 16.1932 12.6205 18.1106 10.2801 19.43L9.98008 19.6C9.68023 19.7659 9.34277 19.852 9.00008 19.85Z" fill="#FFFDF5"/>
</svg>
