<svg width="25" height="24" viewBox="0 0 25 24" fill="none" xmlns="http://www.w3.org/2000/svg">
<g clipPath="url(#clip0_370_1407)">
<path d="M23.9094 15.0886L23.7857 14.9067L23.6833 15.1014C23.0151 16.371 20.7935 17.1297 19.0318 17.1297C16.7885 17.1297 5.71293 16.7925 4.27105 16.7104C3.98601 16.6935 3.6883 16.6856 3.33405 16.6856C3.11432 16.6856 2.91027 16.6884 2.71294 16.691C2.54155 16.6932 2.37983 16.6954 2.22788 16.6954C1.75375 16.6954 1.36389 16.5686 1.07928 16.4759C0.894837 16.4159 0.749122 16.3685 0.628451 16.3685C0.535411 16.3685 0.460018 16.3971 0.404384 16.4536C0.331527 16.5276 0.298823 16.6424 0.301412 16.8149C0.323496 18.3076 1.11383 18.423 2.22793 18.423C2.38093 18.423 2.54382 18.4208 2.71648 18.4186C2.91291 18.4159 3.11606 18.4132 3.33405 18.4132C3.68296 18.4132 3.97576 18.421 4.25573 18.4375C5.69935 18.5198 16.7862 18.8572 19.0318 18.8572C20.1716 18.8572 21.4316 18.5545 22.4022 18.0477C23.5191 17.4644 24.1342 16.6794 24.1342 15.8373C24.1342 15.5599 24.0585 15.308 23.9094 15.0886Z" fill="#FFFDF5"/>
<path d="M2.07815 15.9786C2.23005 15.9786 2.39161 15.9765 2.56295 15.9742C2.75785 15.9715 2.95947 15.9688 3.17577 15.9688C3.52262 15.9688 3.81304 15.9766 4.09021 15.9932C5.52247 16.0754 16.5232 16.4128 18.7517 16.4128C19.883 16.4128 21.1334 16.1101 22.0967 15.603C23.2051 15.0196 23.8155 14.2347 23.8155 13.3929C23.8155 12.1719 22.4225 11.7776 20.9477 11.3601C20.1435 11.1325 19.312 10.8971 18.6094 10.5205C18.2929 10.3504 17.8104 10.104 17.2224 9.80953C17.2233 9.79252 17.225 9.77561 17.225 9.75839C17.225 9.25568 16.816 8.84675 16.3133 8.84675C16.0877 8.84675 15.8814 8.92959 15.722 9.0659C15.509 8.96118 15.2907 8.85404 15.0686 8.74525C15.0487 8.26003 14.6489 7.87112 14.1588 7.87112C13.9609 7.87112 13.7781 7.93521 13.6285 8.04278C13.4293 7.94594 13.2298 7.84904 13.0309 7.75251C13.0351 7.71701 13.0379 7.68108 13.0379 7.64447C13.0379 7.14181 12.629 6.73288 12.1263 6.73288C11.874 6.73288 11.6455 6.83596 11.4803 7.00207C9.53712 6.06375 7.94404 5.30162 7.80128 5.23336C7.71432 5.17403 7.61737 5.1427 7.52005 5.1427C7.36313 5.1427 7.21229 5.21899 7.1164 5.34706L6.04304 6.78645C5.89922 6.98125 5.84275 7.17758 5.87513 7.37016C5.93927 7.75172 6.33288 8.02202 6.64914 8.23916C6.77504 8.32565 6.96228 8.45419 6.99235 8.51659C6.99192 8.51701 6.99145 8.51749 6.99103 8.51791C6.8161 8.68893 6.25463 8.94348 5.42462 8.94348C4.94484 8.94348 4.43928 8.85182 3.96256 8.67826C3.37923 8.46587 3.1382 7.88312 2.94457 7.41485C2.78263 7.0232 2.64273 6.68501 2.33191 6.68501C2.09612 6.68501 1.82328 6.89656 1.41826 7.39404C0.0415835 9.14388 0.105935 11.8175 0.152956 13.7697C0.157975 13.9788 0.162836 14.1797 0.165636 14.3704C0.187509 15.8633 0.972085 15.9786 2.07815 15.9786ZM13.6166 10.5543C13.6166 10.5543 13.7932 10.3795 14.0114 10.4449C14.2014 10.5017 14.6505 10.6227 14.9253 10.6909C15.1602 10.7493 14.9481 10.934 14.9481 10.934L11.3808 14.1992C11.378 14.2013 11.2329 14.3336 11.0128 14.3336C10.6573 14.3336 9.96835 14.3309 9.68759 14.3309C9.45423 14.3309 9.64786 14.134 9.64786 14.134C9.64786 14.134 13.6161 10.5543 13.6166 10.5543ZM10.9004 9.78359C10.9014 9.78274 11.1757 9.51213 11.5061 9.61669C11.6736 9.66968 12.0667 9.76726 12.3174 9.83742C12.5318 9.89739 12.3044 10.1186 12.3043 10.1188L7.88856 14.1222C7.8855 14.1245 7.78337 14.309 7.43921 14.309C7.05083 14.309 6.30974 14.3268 6.00653 14.3268C5.83514 14.3268 5.98751 14.1424 5.98735 14.1426L10.9004 9.78359Z" fill="#FFFDF5"/>
</g>
<defs>
<clipPath id="clip0_370_1407">
<rect width="24" height="24" fill="white" transform="translate(0.134277)"/>
</clipPath>
</defs>
</svg>
