<svg width="24" height="24" viewBox="0 0 24 24" fill="none" xmlns="http://www.w3.org/2000/svg">
<g clipPath="url(#clip0_250_878)">
<path d="M14.8942 13.5999L16.7998 13.5999L16.7998 10.3999L14.8942 10.3999L13.5998 9.75269L13.5998 14.2471L14.8942 13.5999Z" fill="#FFFDF5"/>
<path d="M12.8003 14.4L12.8003 9.59998L4.00027 9.59998L4.00027 14.4L12.8003 14.4Z" fill="#FFFDF5"/>
<path d="M22.0136 12.8939L23.7148 12.3831C23.884 12.3323 24 12.1767 24 11.9999C24 11.8234 23.884 11.6675 23.7148 11.6167L22.0136 11.1063C20.5788 10.6759 19.0956 10.4503 17.6 10.4147L17.6 13.5855C19.0956 13.5498 20.5788 13.3242 22.0136 12.8939Z" fill="#FFFDF5"/>
<path d="M2.16582 14.0445C2.1986 14.0569 2.23101 14.0701 2.26542 14.0785L3.2002 14.3121L3.2002 9.68769L2.26542 9.92087C2.23101 9.92969 2.1986 9.94246 2.16582 9.95528C1.98501 9.74006 1.71704 9.6001 1.41461 9.6001L0.985799 9.6001C0.442183 9.6001 0.000218849 10.0421 0.000218825 10.5857L0.000218702 13.4145C0.000218678 13.9576 0.442231 14.4 0.985799 14.4L1.41461 14.4C1.71704 14.4001 1.98506 14.2602 2.16582 14.0445Z" fill="#FFFDF5"/>
</g>
<defs>
<clipPath id="clip0_250_878">
<rect width="24" height="24" fill="white" transform="translate(24) rotate(90)"/>
</clipPath>
</defs>
</svg>
