<svg width="25" height="24" viewBox="0 0 25 24" fill="none" xmlns="http://www.w3.org/2000/svg">
<path d="M7.1 0.765015H17.1969V1.48876H7.1V0.765015ZM12.5188 8.31377C12.4606 8.06814 12.3931 7.88627 12.1438 7.88627C11.8944 7.88627 11.8025 8.09627 11.7687 8.31377L7.92125 23.2125L4.34375 22.6069C4.56688 20.8331 5.57937 12.8306 6.39125 6.87001L8.16875 5.63439C8.21057 5.60503 8.24594 5.56743 8.2727 5.5239C8.29946 5.48037 8.31705 5.43183 8.32437 5.38126L8.69937 2.91376C8.70664 2.86452 8.70413 2.81432 8.692 2.76605C8.67986 2.71777 8.65834 2.67236 8.62865 2.6324C8.59897 2.59244 8.5617 2.55872 8.51898 2.53316C8.47627 2.50761 8.42893 2.49072 8.37969 2.48345C8.33044 2.47619 8.28025 2.4787 8.23197 2.49083C8.18369 2.50296 8.13828 2.52449 8.09832 2.55418C8.01762 2.61413 7.96404 2.70368 7.94937 2.80314L7.60625 5.11126L6.53 5.86126C6.7175 4.46064 6.905 3.21376 7.0475 2.24064H17.2212C17.3675 3.21376 17.5456 4.46064 17.7388 5.86126L16.6625 5.11126L16.3194 2.81251C16.3047 2.71306 16.2511 2.6235 16.1704 2.56355C16.0897 2.5036 15.9885 2.47816 15.8891 2.49283C15.7896 2.5075 15.7001 2.56107 15.6401 2.64177C15.5801 2.72247 15.5547 2.82368 15.5694 2.92314L15.9444 5.39064C15.9517 5.44121 15.9693 5.48975 15.996 5.53327C16.0228 5.5768 16.0582 5.6144 16.1 5.64376L17.8775 6.87939C18.6894 12.8438 19.7019 20.8481 19.925 22.6163L16.3475 23.2125L12.5188 8.31377Z" fill="#FFFDF5"/>
</svg>
