<svg width="24" height="24" viewBox="0 0 24 24" fill="none" xmlns="http://www.w3.org/2000/svg">
<path d="M22.8998 19.63L12.8098 2.37C12.7426 2.25752 12.6474 2.16434 12.5335 2.09951C12.4196 2.03468 12.2909 2.0004 12.1598 2H11.8598C11.7288 2.0004 11.6001 2.03468 11.4862 2.09951C11.3723 2.16434 11.2771 2.25752 11.2098 2.37L1.09984 19.63C1.03594 19.7465 1.00244 19.8772 1.00244 20.01C1.00244 20.1428 1.03594 20.2735 1.09984 20.39L1.23984 20.62C1.30343 20.7364 1.39754 20.8333 1.51207 20.9003C1.62659 20.9672 1.75719 21.0017 1.88984 21H22.1098C22.2425 21.0017 22.3731 20.9672 22.4876 20.9003C22.6021 20.8333 22.6962 20.7364 22.7598 20.62L22.8998 20.39C22.9637 20.2735 22.9972 20.1428 22.9972 20.01C22.9972 19.8772 22.9637 19.7465 22.8998 19.63ZM12.9998 16.5C12.9998 16.6326 12.9472 16.7598 12.8534 16.8536C12.7596 16.9473 12.6324 17 12.4998 17H11.4998C11.3672 17 11.2401 16.9473 11.1463 16.8536C11.0525 16.7598 10.9998 16.6326 10.9998 16.5V15.5C10.9998 15.3674 11.0525 15.2402 11.1463 15.1464C11.2401 15.0527 11.3672 15 11.4998 15H12.4998C12.6324 15 12.7596 15.0527 12.8534 15.1464C12.9472 15.2402 12.9998 15.3674 12.9998 15.5V16.5ZM12.7798 12.78C12.7725 12.841 12.7429 12.8971 12.6968 12.9377C12.6507 12.9783 12.5913 13.0004 12.5298 13H11.4698C11.4084 13.0004 11.349 12.9783 11.3029 12.9377C11.2568 12.8971 11.2272 12.841 11.2198 12.78L10.8198 9.56C10.8113 9.48948 10.8179 9.41796 10.8392 9.35019C10.8605 9.28242 10.8959 9.21996 10.9433 9.16698C10.9906 9.11399 11.0486 9.0717 11.1136 9.0429C11.1785 9.01411 11.2488 8.99949 11.3198 9H12.6798C12.7509 8.99949 12.8212 9.01411 12.8861 9.0429C12.9511 9.0717 13.0091 9.11399 13.0564 9.16698C13.1037 9.21996 13.1392 9.28242 13.1605 9.35019C13.1818 9.41796 13.1884 9.48948 13.1798 9.56L12.7798 12.78Z" fill="#FFFDF5"/>
</svg>
