<svg width="25" height="27" viewBox="0 0 25 27" fill="none" xmlns="http://www.w3.org/2000/svg">
<path d="M20.2525 0C21.3243 0.290769 22.1333 0.716538 22.6795 1.27731C23.4525 2.06654 23.8389 2.97519 23.8389 4.00327C23.8389 4.84442 23.5349 5.71673 22.9269 6.62019C22.3291 7.51327 21.2213 8.57769 19.6033 9.81346C20.9842 9.93808 21.9942 10.1665 22.6332 10.4988C23.2824 10.8312 23.7359 11.2569 23.9935 11.7762C24.2512 12.2954 24.38 13.1625 24.38 14.3775V19.736C20.7111 20.1513 17.5833 21.439 14.9966 23.599C14.1 22.976 13.2497 22.5346 12.4459 22.275C11.1474 21.8388 9.75608 21.6208 8.27204 21.6208C6.44792 21.6208 4.9845 21.9946 3.88178 22.7423C3.13976 23.2408 2.76875 23.7392 2.76875 24.2377C2.76875 24.4246 2.87181 24.6998 3.07793 25.0633C3.29435 25.4371 3.40256 25.7331 3.40256 25.9512C3.40256 26.1588 3.32526 26.3406 3.17068 26.4963C3.01609 26.6521 2.84605 26.73 2.66054 26.73C2.37198 26.73 2.10918 26.5898 1.87215 26.3094C1.64542 26.0394 1.53206 25.6863 1.53206 25.2502C1.53206 24.8452 1.67119 24.3831 1.94944 23.8638C2.238 23.355 2.8512 22.6177 3.78903 21.6519C4.73716 20.6862 5.34005 19.98 5.59769 19.5335C5.86564 19.0869 5.99962 18.6715 5.99962 18.2873C5.99962 17.8304 5.84503 17.4565 5.53586 17.1658C5.23699 16.8646 4.85567 16.714 4.39191 16.714C3.96938 16.714 3.62413 16.8335 3.35618 17.0723C3.08823 17.3112 2.90788 17.7058 2.81513 18.2562H2.25862C2.24831 18.0588 2.24316 17.9135 2.24316 17.82C2.24316 16.9477 2.53172 16.2312 3.10884 15.6704C3.69627 15.1096 4.47436 14.8292 5.4431 14.8292C5.55647 14.8292 5.73167 14.8344 5.9687 14.8448C5.95839 13.8271 5.80896 13.0898 5.5204 12.6329C5.06694 11.8956 4.37646 11.5269 3.44893 11.5269C2.87181 11.5269 2.36167 11.6775 1.91852 11.9787C1.68149 12.1344 1.44446 12.4563 1.20743 12.9444L0.619995 12.7419C0.723053 11.745 1.10437 10.9506 1.76394 10.3587C2.43381 9.76673 3.28404 9.47077 4.31462 9.47077C4.69593 9.47077 5.17 9.50192 5.73682 9.56423C5.77804 8.1 5.91202 7.03558 6.13875 6.37096C6.36547 5.69596 6.74679 5.08327 7.28269 4.53288C7.81859 3.97212 8.83371 3.19846 10.328 2.21192C8.91616 2.67923 7.72068 2.91288 6.74163 2.91288C6.11298 2.91288 5.28852 2.78827 4.26824 2.53904C3.68081 2.40404 3.26343 2.33654 3.01609 2.33654C2.55233 2.33654 2.16071 2.4975 1.84123 2.81942C1.52175 3.13096 1.31048 3.69173 1.20743 4.50173H0.619995C0.650912 3.55673 0.820958 2.7675 1.13013 2.13404C1.44961 1.49019 1.93398 0.976154 2.58325 0.591923C3.23251 0.197308 3.91785 0 4.63925 0C5.17515 0 6.06661 0.155769 7.31361 0.467308C8.56061 0.778846 9.57057 0.934615 10.3435 0.934615C10.9103 0.934615 11.4565 0.872308 11.9821 0.747692C12.518 0.623077 13.2188 0.373846 14.0845 0L14.3937 0.669808C12.1676 1.76019 10.6836 2.82462 9.94158 3.86308C9.20987 4.89115 8.84402 6.26192 8.84402 7.97538V14.3775C8.84402 15.7794 8.68943 16.8698 8.38025 17.6487C8.07108 18.4275 7.44758 19.3154 6.50975 20.3123C8.33388 19.5335 9.56027 18.6975 10.1889 17.8044C10.8176 16.9113 11.1319 15.5977 11.1319 13.8635V9.26827C11.1319 7.12904 11.3174 5.62327 11.6884 4.75096C12.0594 3.86827 12.7396 3.11538 13.729 2.49231C14.7286 1.85885 16.9031 1.02808 20.2525 0ZM17.5782 1.51096C16.4651 2.01981 15.7128 2.45077 15.3212 2.80385C14.9399 3.15692 14.6719 3.5775 14.5174 4.06558C14.3731 4.54327 14.3009 5.35846 14.3009 6.51115V12.8977C14.3009 14.04 14.1979 14.9019 13.9918 15.4835C13.7856 16.0546 13.3889 16.6206 12.8014 17.1813C12.214 17.7317 11.0237 18.5365 9.23048 19.5958C10.1992 19.4504 11.101 19.3777 11.9358 19.3777C13.358 19.3777 14.7029 19.575 15.9705 19.9696V6.99404H16.6507V11.044C18.0728 10.1821 19.124 9.29942 19.8042 8.39596C20.4844 7.48212 20.8245 6.49558 20.8245 5.43635C20.8245 4.56404 20.5565 3.81635 20.0206 3.19327C19.495 2.55981 18.6809 1.99904 17.5782 1.51096ZM16.6507 13.2871C17.4957 13.5883 18.2584 13.7388 18.9385 13.7388C19.6187 13.7388 20.3813 13.5883 21.2264 13.2871C21.2264 12.5706 21.0667 11.9942 20.7472 11.5581C20.4277 11.1219 19.8248 10.7117 18.9385 10.3275C17.8152 11.0752 17.0526 11.5581 16.6507 11.7762V13.2871ZM21.2264 13.9725C20.3607 14.2737 19.5981 14.4242 18.9385 14.4242C18.2274 14.4242 17.4648 14.2737 16.6507 13.9725V16.7452C17.4442 16.4544 18.1862 16.309 18.8767 16.309C19.5466 16.309 20.3298 16.4544 21.2264 16.7452V13.9725ZM21.2264 17.4617C20.2783 17.119 19.4744 16.9477 18.8149 16.9477C18.1244 16.9477 17.403 17.119 16.6507 17.4617V20.2344C17.0938 20.4317 17.5112 20.655 17.9028 20.9042C18.954 20.3538 20.0619 19.9229 21.2264 19.6113V17.4617Z" fill="#BD52FF"/>
</svg>
