<svg width="25" height="27" viewBox="0 0 25 27" fill="none" xmlns="http://www.w3.org/2000/svg">
<path d="M20.2526 0C21.3244 0.290769 22.1334 0.716538 22.6796 1.27731C23.4525 2.06654 23.839 2.97519 23.839 4.00327C23.839 4.84442 23.535 5.71673 22.9269 6.62019C22.3292 7.51327 21.2213 8.57769 19.6033 9.81346C20.9843 9.93808 21.9943 10.1665 22.6332 10.4988C23.2825 10.8312 23.7359 11.2569 23.9936 11.7762C24.2512 12.2954 24.3801 13.1625 24.3801 14.3775V19.736C20.7112 20.1513 17.5834 21.439 14.9966 23.599C14.1 22.976 13.2498 22.5346 12.446 22.275C11.1474 21.8388 9.75614 21.6208 8.27211 21.6208C6.44798 21.6208 4.98456 21.9946 3.88184 22.7423C3.13982 23.2408 2.76881 23.7392 2.76881 24.2377C2.76881 24.4246 2.87187 24.6998 3.07799 25.0633C3.29441 25.4371 3.40262 25.7331 3.40262 25.9512C3.40262 26.1588 3.32533 26.3406 3.17074 26.4963C3.01615 26.6521 2.84611 26.73 2.6606 26.73C2.37204 26.73 2.10924 26.5898 1.87221 26.3094C1.64548 26.0394 1.53212 25.6863 1.53212 25.2502C1.53212 24.8452 1.67125 24.3831 1.9495 23.8638C2.23807 23.355 2.85126 22.6177 3.78909 21.6519C4.73722 20.6862 5.34011 19.98 5.59775 19.5335C5.8657 19.0869 5.99968 18.6715 5.99968 18.2873C5.99968 17.8304 5.84509 17.4565 5.53592 17.1658C5.23705 16.8646 4.85574 16.714 4.39198 16.714C3.96944 16.714 3.62419 16.8335 3.35624 17.0723C3.08829 17.3112 2.90794 17.7058 2.81519 18.2562H2.25868C2.24837 18.0588 2.24322 17.9135 2.24322 17.82C2.24322 16.9477 2.53178 16.2312 3.1089 15.6704C3.69633 15.1096 4.47442 14.8292 5.44317 14.8292C5.55653 14.8292 5.73173 14.8344 5.96876 14.8448C5.95846 13.8271 5.80902 13.0898 5.52046 12.6329C5.06701 11.8956 4.37652 11.5269 3.449 11.5269C2.87187 11.5269 2.36173 11.6775 1.91859 11.9787C1.68155 12.1344 1.44452 12.4563 1.20749 12.9444L0.620056 12.7419C0.723114 11.745 1.10443 10.9506 1.764 10.3587C2.43388 9.76673 3.2841 9.47077 4.31468 9.47077C4.696 9.47077 5.17006 9.50192 5.73688 9.56423C5.7781 8.1 5.91208 7.03558 6.13881 6.37096C6.36553 5.69596 6.74685 5.08327 7.28275 4.53288C7.81865 3.97212 8.83377 3.19846 10.3281 2.21192C8.91622 2.67923 7.72075 2.91288 6.7417 2.91288C6.11304 2.91288 5.28858 2.78827 4.26831 2.53904C3.68088 2.40404 3.26349 2.33654 3.01615 2.33654C2.55239 2.33654 2.16077 2.4975 1.84129 2.81942C1.52181 3.13096 1.31054 3.69173 1.20749 4.50173H0.620056C0.650974 3.55673 0.821019 2.7675 1.13019 2.13404C1.44967 1.49019 1.93404 0.976154 2.58331 0.591923C3.23257 0.197308 3.91791 0 4.63931 0C5.17522 0 6.06667 0.155769 7.31367 0.467308C8.56067 0.778846 9.57064 0.934615 10.3436 0.934615C10.9104 0.934615 11.4566 0.872308 11.9822 0.747692C12.5181 0.623077 13.2189 0.373846 14.0846 0L14.3937 0.669808C12.1677 1.76019 10.6837 2.82462 9.94164 3.86308C9.20993 4.89115 8.84408 6.26192 8.84408 7.97538V14.3775C8.84408 15.7794 8.68949 16.8698 8.38032 17.6487C8.07114 18.4275 7.44764 19.3154 6.50982 20.3123C8.33394 19.5335 9.56033 18.6975 10.189 17.8044C10.8176 16.9113 11.132 15.5977 11.132 13.8635V9.26827C11.132 7.12904 11.3175 5.62327 11.6885 4.75096C12.0595 3.86827 12.7397 3.11538 13.729 2.49231C14.7287 1.85885 16.9032 1.02808 20.2526 0ZM17.5782 1.51096C16.4652 2.01981 15.7129 2.45077 15.3213 2.80385C14.94 3.15692 14.672 3.5775 14.5174 4.06558C14.3731 4.54327 14.301 5.35846 14.301 6.51115V12.8977C14.301 14.04 14.1979 14.9019 13.9918 15.4835C13.7857 16.0546 13.3889 16.6206 12.8015 17.1813C12.2141 17.7317 11.0238 18.5365 9.23054 19.5958C10.1993 19.4504 11.101 19.3777 11.9358 19.3777C13.358 19.3777 14.7029 19.575 15.9705 19.9696V6.99404H16.6507V11.044C18.0729 10.1821 19.1241 9.29942 19.8043 8.39596C20.4845 7.48212 20.8246 6.49558 20.8246 5.43635C20.8246 4.56404 20.5566 3.81635 20.0207 3.19327C19.4951 2.55981 18.681 1.99904 17.5782 1.51096ZM16.6507 13.2871C17.4958 13.5883 18.2584 13.7388 18.9386 13.7388C19.6188 13.7388 20.3814 13.5883 21.2265 13.2871C21.2265 12.5706 21.0667 11.9942 20.7473 11.5581C20.4278 11.1219 19.8249 10.7117 18.9386 10.3275C17.8153 11.0752 17.0526 11.5581 16.6507 11.7762V13.2871ZM21.2265 13.9725C20.3608 14.2737 19.5982 14.4242 18.9386 14.4242C18.2275 14.4242 17.4649 14.2737 16.6507 13.9725V16.7452C17.4443 16.4544 18.1863 16.309 18.8768 16.309C19.5466 16.309 20.3299 16.4544 21.2265 16.7452V13.9725ZM21.2265 17.4617C20.2784 17.119 19.4745 16.9477 18.8149 16.9477C18.1244 16.9477 17.403 17.119 16.6507 17.4617V20.2344C17.0939 20.4317 17.5112 20.655 17.9029 20.9042C18.9541 20.3538 20.0619 19.9229 21.2265 19.6113V17.4617Z" fill="#E02323"/>
</svg>
