<svg width="25" height="27" viewBox="0 0 25 27" fill="none" xmlns="http://www.w3.org/2000/svg">
<path d="M24.2628 0H24.92C24.8802 0.893401 24.7457 1.5736 24.5167 2.04061C24.198 2.6599 23.725 3.15228 23.0977 3.51777C22.4703 3.88325 21.7783 4.06599 21.0215 4.06599C20.2149 4.06599 19.2539 3.84264 18.1387 3.39594V7.43147H22.8139L21.9625 9.70051H18.1387V16.934C18.1387 18.3655 18.0391 19.4112 17.8399 20.0711C17.6507 20.7208 17.2723 21.3452 16.7047 21.9442C16.1371 22.5431 15.4251 23.0457 14.5687 23.4518C13.3439 24.0406 12.3581 24.4619 11.6112 24.7157L5.3527 26.8477C3.38103 26.1066 2.23587 25.736 1.91722 25.736C1.6384 25.736 1.38945 25.8325 1.17038 26.0254C0.951303 26.2284 0.796956 26.5533 0.707335 27L0.0799866 26.8477C0.0799866 26.1472 0.164629 25.5939 0.333913 25.1878C0.602777 24.5381 0.981177 24.0457 1.46911 23.7107C1.95705 23.3756 2.47984 23.2081 3.03749 23.2081C3.82416 23.2081 4.83987 23.4822 6.0846 24.0305C6.9609 24.4264 7.49365 24.6548 7.68285 24.7157C7.88201 24.7766 8.07121 24.8071 8.25045 24.8071C8.55914 24.8071 8.84295 24.6751 9.10185 24.4112C9.36076 24.1574 9.52506 23.7614 9.59477 23.2234C9.67443 22.6954 9.71426 21.5888 9.71426 19.9036V9.70051L8.78818 9.68528C7.25466 9.68528 6.11448 9.86802 5.36764 10.2335C4.63075 10.5888 3.99344 11.1929 3.45572 12.0457L2.87318 11.802C3.2715 10.4619 3.79429 9.49746 4.44155 8.90863C5.53692 7.91371 7.0555 7.41624 8.99729 7.41624C9.15662 7.41624 9.39561 7.42132 9.71426 7.43147V4.18782L10.7449 4.2335C11.8602 4.2335 12.9605 4.00508 14.046 3.54822C15.1314 3.08122 16.0425 2.52792 16.7794 1.88832C17.2673 1.45178 17.7851 0.822335 18.3328 0C19.9659 1.06599 21.3053 1.59898 22.3508 1.59898C22.8089 1.59898 23.1973 1.47716 23.5159 1.2335C23.8346 0.979695 24.0835 0.568528 24.2628 0ZM15.0766 4.0203C14.4094 4.38579 13.6476 4.66497 12.7913 4.85787V17.132C12.7913 17.5584 12.7514 18.3604 12.6718 19.5381C12.622 20.2284 12.5423 20.7513 12.4328 21.1066C12.2635 21.6345 12.0145 22.1371 11.6859 22.6142C11.3573 23.0812 10.7997 23.6904 10.013 24.4416C11.3175 23.9543 12.3581 23.3553 13.1348 22.6447C13.9115 21.9239 14.4293 21.1523 14.6882 20.3299C14.9471 19.4975 15.0766 18.2538 15.0766 16.599V4.0203Z" fill="#2FC716"/>
</svg>
