<svg width="27" height="17" viewBox="0 0 27 17" fill="none" xmlns="http://www.w3.org/2000/svg">
<path fill-rule="evenodd" clip-rule="evenodd" d="M21.4448 8.85608C20.7191 10.4035 17.7998 12.2783 13.5 12.2783C9.22725 12.2783 6.18806 10.4271 5.5485 8.88139C2.32031 9.02652 0 10.957 0 12.1045C0 14.008 6.04294 16.708 13.5 16.708C20.9554 16.708 27 14.008 27 12.1045C27 10.9418 24.6797 9.4602 21.4448 8.85608V8.85608Z" fill="#FFDD00"/>
<path fill-rule="evenodd" clip-rule="evenodd" d="M17.0049 0.394958C16.1342 0.394958 14.3353 0.992334 13.5202 0.992334C12.7052 0.992334 10.9063 0.394958 10.0372 0.394958C8.15737 0.394958 6.98287 2.71021 6.81918 3.59615L6.78543 7.69171C7.73381 8.54558 9.50399 9.61883 11.4446 9.78083C12.8597 9.89745 14.282 9.89745 15.6971 9.78083C17.6377 9.61715 19.197 8.67721 20.1994 7.7204L20.1909 3.64846C20.0458 2.72708 18.8679 0.394958 17.0049 0.394958V0.394958Z" fill="#FFDD00"/>
</svg>
