<svg width="27" height="23" viewBox="0 0 27 23" fill="none" xmlns="http://www.w3.org/2000/svg">
<path d="M25.538 1.30819L25.9538 1.73052C25.3636 2.37282 24.9881 2.90073 24.8271 3.31427C24.6662 3.719 24.5857 4.3349 24.5857 5.16197V15.3639C24.5857 16.411 24.6751 17.0709 24.8539 17.3436C25.0328 17.6076 25.2697 17.7395 25.5648 17.7395C25.8063 17.7395 26.155 17.5372 26.611 17.1324L27 17.6472L23.7541 20.1548C22.9762 19.7676 22.4486 19.3233 22.1714 18.8218C21.9031 18.3115 21.769 17.4228 21.769 16.1558V3.53863L19.5156 1.8361L18.6304 2.37722V8.94976H20.2534L18.6304 10.9294V16.4858L19.6766 15.6411L20.079 16.0634L15.1162 20.1548C14.3651 19.2749 13.7571 18.6326 13.2921 18.2279C12.9523 17.9375 12.5499 17.6736 12.0849 17.436V16.9609C12.5052 16.8201 12.7824 16.5957 12.9165 16.2878C13.0149 16.059 13.0641 15.5223 13.0641 14.6776V10.9294H9V16.6177C9 18.1839 8.59314 19.3893 7.77943 20.2339C6.97466 21.0786 5.91952 21.5009 4.61401 21.5009C4.32787 21.5009 3.81818 21.4482 3.08495 21.3426C2.5842 21.2722 2.22206 21.237 1.99851 21.237C1.54247 21.237 1.20715 21.3382 0.992548 21.5405C0.786885 21.7429 0.684054 22.0861 0.684054 22.57H0.160954C0.0536513 22.1916 0 21.8749 0 21.6197C0 21.1446 0.125186 20.6959 0.375559 20.2735C0.625931 19.86 0.961252 19.5521 1.38152 19.3497C1.70343 19.1913 2.29359 19.0725 3.15201 18.9933C4.01043 18.9142 4.64531 18.6502 5.05663 18.2015C5.46796 17.7439 5.67362 17.1149 5.67362 16.3142C5.67362 15.056 5.37407 14.0221 4.77496 13.2127C4.17586 12.3944 3.45156 11.9853 2.60209 11.9853C1.94039 11.9853 1.39493 12.2932 0.965723 12.9091L0.482861 12.7112C0.724292 12.0601 1.00149 11.5585 1.31446 11.2066C1.63636 10.8547 2.06557 10.5775 2.60209 10.3751C2.99553 10.2256 3.56781 10.1464 4.31893 10.1376C4.30999 9.87361 4.30551 9.67564 4.30551 9.54367C4.30551 8.0655 4.60954 6.8205 5.21759 5.80867C5.82563 4.79683 6.769 3.86858 8.04769 3.02391C9.33532 2.17045 11.1818 1.2158 13.5872 0.159973C14.4367 0.608701 15.0089 1.05743 15.304 1.50616C15.608 1.95488 15.7779 2.60598 15.8137 3.45944L21.0581 0.159973L24.2772 2.52239L25.538 1.30819ZM13.0641 8.94976V5.01679C13.0641 4.05775 12.9389 3.36266 12.6885 2.93153C12.4382 2.5004 11.9911 2.15285 11.3472 1.8889C10.7303 2.19685 10.2921 2.4784 10.0328 2.73356C9.68405 3.0943 9.42474 3.52543 9.25484 4.02695C9.08495 4.52847 9 5.24996 9 6.1914V10.3751L10.1133 8.94976H13.0641ZM18.0402 2.77315L15.8137 4.21172V8.94976H18.0402V2.77315ZM8.90611 3.27467C8.12817 3.87298 7.62295 4.44489 7.39046 4.9904C7.15797 5.52711 7.04173 6.46856 7.04173 7.81474V15.2847C7.04173 16.5077 6.88077 17.3656 6.55887 17.8583C6.2459 18.3511 5.63338 18.7778 4.72131 19.1385C5.1237 19.1649 5.46349 19.1781 5.74069 19.1781C6.40238 19.1781 6.9389 19.0681 7.35022 18.8482C7.77049 18.6194 8.04322 18.3423 8.16841 18.0167C8.30253 17.6824 8.3696 17.1017 8.3696 16.2746V6.32338C8.3696 5.5667 8.41878 4.93761 8.51714 4.43609C8.57973 4.12814 8.70939 3.741 8.90611 3.27467ZM18.0402 10.9294H15.8137V14.3477C15.8137 15.5267 15.8942 16.2834 16.0551 16.6177C16.3145 17.1896 16.6632 17.4756 17.1013 17.4756C17.3338 17.4756 17.6468 17.304 18.0402 16.9609V10.9294Z" fill="#259FE3"/>
</svg>
