<svg width="28" height="28" viewBox="0 0 28 28" fill="none" xmlns="http://www.w3.org/2000/svg">
<path d="M10.337 3.00857C9.79694 5.37113 11.3614 9.39486 14.006 9.39486C16.6319 9.39486 18.1963 5.37113 17.6562 3.00857C17.2465 1.19974 15.6449 0 14.006 0C12.3484 0 10.7654 1.19974 10.337 3.00857ZM2.64535 4.66974C2.17975 6.66315 3.52068 10.0778 5.75555 10.0778C7.99042 10.0778 9.33135 6.66315 8.86575 4.66974C8.51189 3.13777 7.15235 2.10415 5.75555 2.10415C4.35875 2.10415 2.99921 3.13777 2.64535 4.66974ZM19.1462 4.66974C18.6806 6.66315 20.0215 10.0778 22.2377 10.0778C24.4726 10.0778 25.8135 6.66315 25.3479 4.66974C24.9941 3.13777 23.6345 2.10415 22.2377 2.10415C20.8596 2.10415 19.5 3.13777 19.1462 4.66974ZM18.0473 25.7666L20.3753 17.8299C21.828 13.234 19.053 10.41 14.006 10.41C8.94024 10.41 6.16528 13.234 7.59932 17.8299L9.94594 25.7666C10.3743 27.0956 12.1436 28 14.006 28C15.8311 28 17.619 27.0956 18.0473 25.7666ZM6.68675 11.6836C5.77417 12.9202 4.89885 15.0613 5.90454 18.3098L7.99042 25.3052C7.35721 25.6744 6.55638 25.8774 5.75555 25.8774C4.17251 25.8774 2.6826 25.1206 2.31012 23.9763L0.317359 17.2393C-0.893197 13.3448 1.45342 10.9637 5.75555 10.9637C6.2584 10.9637 6.76124 11.0007 7.22684 11.0745C7.0406 11.2591 6.85436 11.4806 6.68675 11.6836ZM22.2377 10.9637C26.5399 10.9637 28.9051 13.3448 27.6759 17.2393L25.6832 23.9763C25.3107 25.1206 23.8208 25.8774 22.2377 25.8774C21.4369 25.8774 20.6361 25.6744 20.0029 25.3052L22.0701 18.3467C23.0944 15.0613 22.2191 12.9202 21.2879 11.6836C21.1389 11.4806 20.9527 11.2591 20.7664 11.0745C21.232 11.0007 21.7163 10.9637 22.2377 10.9637Z" fill="white"/>
</svg>
