<svg width="25" height="25" viewBox="0 0 25 25" fill="none" xmlns="http://www.w3.org/2000/svg">
<path fill-rule="evenodd" clip-rule="evenodd" d="M24.0941 7.08014C23.9154 7.27867 23.7368 7.4375 23.5382 7.55661C23.0419 7.87426 22.8632 8.52941 23.161 9.08529C24.0544 10.9316 24.4713 13.0559 23.5184 15.1007C23.5184 15.1007 21.6919 18.3368 18.6147 20.6199C17.6281 21.4469 14.9024 22.9102 13.4601 23.6844C12.9292 23.9695 12.5718 24.1613 12.5397 24.1934C12.5039 24.1516 12.0627 23.9143 11.4264 23.5721C9.94581 22.7758 7.40891 21.4113 6.46471 20.6199C3.3875 18.3368 1.56103 15.1007 1.56103 15.1007C0.60809 13.0559 1.025 10.9316 1.91838 9.08529C2.17647 8.54926 1.9978 7.89411 1.50147 7.57647C1.30294 7.4375 1.12427 7.29853 0.94559 7.1C0.449267 6.56397 0.0125016 5.90882 0.131619 5.23382C0.27059 4.41985 0.846325 2.85147 1.28309 2.13676C2.61324 -0.0272074 4.79706 0.90588 5.96839 2.29559C6.36544 2.77206 7.04044 2.87132 7.55662 2.53382C9.46383 1.27312 10.8842 1.43355 11.8926 1.54746C12.1229 1.57346 12.3317 1.59704 12.5199 1.60073C12.7131 1.59702 12.9258 1.57313 13.1593 1.5469C14.1733 1.43303 15.579 1.27516 17.4831 2.53382C17.9993 2.87132 18.6743 2.77206 19.0713 2.29559V2.27573C20.2228 0.886027 22.4265 -0.0470616 23.7566 2.11691C24.1934 2.81176 24.7691 4.4 24.9081 5.21397C25.0074 5.88897 24.5905 6.54411 24.0941 7.08014ZM8.46986 14.3265C8.46986 17.5228 11.1302 19.5875 12.5 19.5875C14.0287 19.5875 16.5302 17.5228 16.5302 14.3265C16.5302 11.1301 14.7235 10.3956 12.5 10.3956C10.2765 10.3956 8.46986 11.1301 8.46986 14.3265ZM17.0037 9.62132L15.7133 9.50221C15.2765 9.4625 15.1574 8.82721 15.5346 8.58897C15.5346 8.58897 17.6192 7.59632 17.7184 7.95368C17.7184 7.95368 18.0559 8.39044 17.778 9.10515C17.639 9.44265 17.3412 9.64118 17.0037 9.62132ZM9.46539 8.56911C9.46539 8.56911 7.38083 7.59632 7.28157 7.93382C7.28157 7.93382 6.94407 8.37058 7.22201 9.08529C7.36098 9.42279 7.65878 9.64117 7.99628 9.60147L9.28672 9.48235C9.72348 9.4625 9.8426 8.8272 9.46539 8.56911Z" fill="#1E1C0D"/>
</svg>
