<svg width="25" height="27" viewBox="0 0 25 27" fill="none" xmlns="http://www.w3.org/2000/svg">
<path d="M10.6111 5.82238L21.5926 0C23.6308 2.97588 24.6499 6.06939 24.6499 9.28051C24.6499 11.6918 24.1228 13.8972 23.0686 15.8969C21.6395 18.614 18.7579 22.225 14.4239 26.73C13.6625 26.2242 13.0007 25.8772 12.4384 25.689C11.8762 25.4891 11.2905 25.3891 10.6814 25.3891C9.96683 25.3891 9.28744 25.4832 8.64319 25.6714C7.99894 25.8478 7.17898 26.2007 6.18332 26.73L5.65621 26.2713C6.60501 24.4951 7.23755 23.1072 7.55382 22.1074C7.8818 21.0958 8.04579 20.1784 8.04579 19.355C8.04579 18.1082 7.70024 17.1025 7.00913 16.3379C6.31803 15.5734 5.52735 15.1911 4.63712 15.1911C4.22714 15.1911 3.89916 15.2558 3.65317 15.3852C3.4189 15.5028 3.19048 15.7263 2.96792 16.0556L2.38809 15.6322C2.66922 14.8324 3.07334 14.2442 3.60046 13.8678C4.12757 13.4797 4.74254 13.2856 5.44536 13.2856C5.89048 13.2856 6.31217 13.3621 6.71043 13.515C7.1087 13.6561 7.64167 13.9619 8.30935 14.4324C8.19221 10.4568 7.37811 7.3162 5.86705 5.01077C5.02367 3.71691 4.11586 3.06998 3.14362 3.06998C2.65165 3.06998 2.25339 3.24053 1.94883 3.58164C1.53885 4.04038 1.2343 4.85786 1.03516 6.0341L0.349915 5.82238C0.420197 4.45794 0.619329 3.36992 0.947312 2.55832C1.27529 1.74671 1.75555 1.11743 2.38809 0.670455C3.03234 0.223485 3.71174 0 4.42627 0C5.50393 0 6.58744 0.435208 7.67681 1.30562C8.76618 2.17604 9.74427 3.68162 10.6111 5.82238ZM10.8746 6.65162C11.2729 7.94549 11.5423 9.18642 11.6829 10.3744C13.2642 10.8802 14.6933 11.1331 15.9701 11.1331C17.61 11.1331 19.3261 10.7332 21.1182 9.93333C21.0245 8.66299 20.7785 7.4397 20.3803 6.26347C19.982 5.08723 19.3612 3.8463 18.5178 2.54067L10.8746 6.65162ZM21.1182 10.8155C20.0523 11.2625 19.1386 11.5683 18.3772 11.733C17.6276 11.8976 16.8135 11.98 15.9349 11.98C14.5996 11.98 13.1998 11.7212 11.7356 11.2037C11.7825 11.7683 11.8059 12.1917 11.8059 12.474C11.8059 13.615 11.6185 14.9206 11.2436 16.3909C11.9464 16.1674 12.6141 16.0027 13.2467 15.8969C13.8792 15.791 14.4707 15.7381 15.0213 15.7381C16.5675 15.7381 18.1781 16.1203 19.8532 16.8849C20.6263 14.65 21.048 12.6269 21.1182 10.8155ZM19.5193 17.6259C18.4885 17.179 17.6627 16.8849 17.0419 16.7437C16.4328 16.6026 15.7534 16.532 15.0037 16.532C14.418 16.532 13.7913 16.5967 13.1237 16.7261C12.456 16.8437 11.7473 17.0319 10.9976 17.2907C10.6228 18.5375 10.207 19.6373 9.75013 20.59C8.98874 22.1662 8.07508 23.76 7.00913 25.3714C8.27421 24.4069 9.35187 23.7424 10.2421 23.3777C11.4135 22.9072 12.538 22.672 13.6156 22.672C14.3887 22.672 15.279 22.8308 16.2864 23.1484C17.1063 22.0662 17.7447 21.1311 18.2015 20.343C18.6584 19.555 19.0976 18.6492 19.5193 17.6259Z" fill="#FFEA2D"/>
</svg>
